<svg xmlns="http://www.w3.org/2000/svg" xmlns:xlink="http://www.w3.org/1999/xlink" height="800" width="1200" viewBox="-91.4994 -36.205 792.9948 217.23"><defs><clipPath id="a"><path d="M76 2v46H54v23H35.58c-.077.666-.14 1.333-.205 2-1.151 12.531 1.036 24.088 6.063 33.969L43.124 110c1.011 1.817 2.191 3.523 3.438 5.188 1.244 1.662 1.685 2.582 2.468 3.687C62.32 133.811 82.13 141 105 141c50.648 0 93.633-22.438 112.656-72.844C231.153 69.541 244.1 66.08 250 54.562c-9.399-5.423-21.478-3.685-28.438-.187L240 2l-72 46h-23V2z"/></clipPath></defs><path d="M467.82 113.24l-.042-25.557-.127-45.658m25.854 19.677l-25.727 25.98 25.854 25.643M321.285 88.021c.125-5.48-1.469-11.081-4.696-15.614-4.652-6.531-12.18-10.99-20.438-11.086-.55 0-1.096 0-1.65.042-3.265.202-6.427.655-9.225 1.82-18.4 7.656-21.66 33.207-6.136 44.768 13.445 10.011 33.002 5.924 39.776-9.351 1.431-3.228 2.37-7.298 2.37-10.579V41.814m124.151 22.553c-3.81-2.461-8.255-3.35-12.652-3.342-.477 0-.967.023-1.396.042-12.713.547-24.5 9.53-24.5 26.954 0 20.6 22.088 31.718 38.59 22.004m74.135-2.243c13.002-11.138 39.056-33.47 39.056-33.47s-.95-1.798-1.565-2.624c-5.258-7.056-13.29-10.579-21.75-10.579-20.909 0-36.582 27.037-15.74 46.673 1.442 1.36 3.424 2.424 5.627 3.343 7.647 3.188 18.116 2.927 23.78-1.27M364.02 61.194c-.593.01-1.182.073-1.777.084-15.855.292-27.286 16.76-23.823 32.032 3.375 14.883 19.634 23.696 33.682 18.83 16.359-4.289 23.03-24.888 14.048-38.802-4.912-7.61-13.239-12.313-22.13-12.144zm240.726.508c-6.42.017-12.672 2.265-17.306 6.6-7.308 6.032-8.895 13.648-8.802 23.274l.212 21.876" fill="none" stroke="#394d54" stroke-width="10.5" stroke-linecap="round" stroke-linejoin="round"/><path d="M147.488 45.732h22.866v23.374h11.561c5.34 0 10.831-.95 15.887-2.664 2.485-.843 5.274-2.015 7.724-3.49-3.228-4.214-4.876-9.535-5.36-14.78-.66-7.135.78-16.42 5.608-22.005l2.404-2.78 2.864 2.303c7.211 5.793 13.276 13.889 14.345 23.118 8.683-2.554 18.878-1.95 26.532 2.467l3.14 1.812-1.653 3.226c-6.473 12.633-20.005 16.546-33.235 15.854-19.797 49.308-62.898 72.653-115.157 72.653-27 0-51.77-10.093-65.876-34.047-.827-1.488-1.535-3.044-2.286-4.573-4.768-10.544-6.352-22.095-5.278-33.636l.323-3.457H51.45V45.732h22.866V22.866h45.732V0h27.44v45.732" fill="#394d54"/><g clip-path="url(#a)"><g id="d"><g id="c" transform="translate(0 -22.866)"><path d="M123.859 3.811h19.818v19.817h-19.818z" fill="#00acd3"/><path d="M123.859 26.676h19.818v19.819h-19.818z" fill="#20c2ef"/><path id="b" d="M126.292 21.977V5.46m2.972 16.516V5.46m3.002 16.516V5.46m3.003 16.516V5.46m3.003 16.516V5.46m2.972 16.516V5.46" stroke="#394d54" stroke-width="1.56"/><use height="100%" width="100%" xlink:href="#b" transform="translate(0 22.866)"/></g><use height="100%" width="100%" xlink:href="#c" transform="matrix(1 0 0 -1 22.866 4.573)"/></g><use height="100%" width="100%" xlink:href="#d" transform="translate(-91.464 45.732)"/><use height="100%" width="100%" xlink:href="#d" transform="translate(-45.732 45.732)"/><use height="100%" width="100%" xlink:href="#d" transform="translate(0 45.732)"/></g><path clip-path="url(#a)" d="M221.57 54.38c1.533-11.916-7.384-21.275-12.914-25.719-6.373 7.368-7.363 26.678 2.635 34.808-5.58 4.956-17.337 9.448-29.376 9.448H34C32.83 85.484 34 146 34 146h217l-.987-91.424c-9.398-5.424-21.484-3.694-28.443-.197" fill="#17b5eb"/><path clip-path="url(#a)" d="M34 89v57h217V89" fill-opacity=".17"/><path clip-path="url(#a)" d="M111.237 140.89c-13.54-6.425-20.971-15.16-25.106-24.694L45 118l21 28 45.237-5.11" fill="#d4edf1"/><path clip-path="url(#a)" d="M222.5 53.938v.03c-20.861 26.89-50.783 50.38-82.906 62.72-28.655 11.007-53.639 11.06-70.875 2.218-1.856-1.048-3.676-2.211-5.5-3.312-12.637-8.832-19.755-23.442-19.157-42.688H34V146h217V50h-25z" fill-opacity=".085"/><path d="M45.625 117.03c14.165.776 29.282.915 42.469-3.218" fill="none" stroke="#394d54" stroke-width="3.4" stroke-linecap="round"/><path d="M102.17 106.959a5.467 5.467 0 11-10.933 0 5.467 5.467 0 0110.933 0z" fill="#d4edf1"/><path d="M98.121 103.307a1.598 1.598 0 00.798 2.981c.605 0 1.13-.336 1.402-.831a3.915 3.915 0 11-2.2-2.15zM0 90.162h254.327c-5.537-1.405-17.52-3.302-15.544-10.56-10.07 11.652-34.353 8.174-40.482 2.429-6.824 9.898-46.554 6.136-49.325-1.575-8.556 10.04-35.067 10.04-43.623 0-2.773 7.71-42.502 11.473-49.327 1.575-6.128 5.745-30.41 9.223-40.48-2.429C17.522 86.86 5.539 88.757 0 90.162" fill="#394d54"/></svg>